<svg xmlns="http://www.w3.org/2000/svg" viewBox="0 0 559 200"><defs><style>.cls-1{fill:#edebd5;}</style></defs><title>skyline</title><g id="Buildings"><path class="cls-1" d="M52,167H51V152h0s0,0,0,0h0v-4h0V128h0v-2H97v10h0v2h0v4h0v10a13,13,0,0,1-1,5H93a14,14,0,0,1-1-5v-4h0v-4h0v-4h0v-2h0V127H55v15h0v4h0v14H52Z" transform="translate(-30 -11)"/><path class="cls-1" d="M100,166V142c0-2,0-5,0-7s0-5,0-8h0v-6c0-3,0-6,0-9v-5c0-2,0-3,0-5s0-6,0-9V86h35l5,2h3v3c0,3,0,6,0,10v5h0v11h0s0,1,0,1v2c0,1,0,3,0,4v6c0,1,0,1,0,2s0,5,0,8v4h0v2c0,2,0,4,0,6v10a41,41,0,0,1-1,7v2h-1v-2a57,57,0,0,1,0-7V158c0-2,0-4,0-6v-2h0v-4c0-2,0-5,0-8s0-1,0-2v-6c0-1,0-3,0-4v-2s0-1,0-1h0V109h0v-5c0-3,0-6,0-10V91h0l-5-2H102v3c0,3,0,6,0,9s0,3,0,5v4c0,3,0,6,0,9v6h0c0,3,0,5,0,8s0,5,0,7v23a4,4,0,0,1-1,2h-1A4,4,0,0,1,100,166Z" transform="translate(-30 -11)"/><path class="cls-1" d="M152,169V158h0v-2h38v2h0v24h-1V158H154v5a32,32,0,0,1,0,4v2h-1Z" transform="translate(-30 -11)"/><path class="cls-1" d="M141,136h20v3c0,1,0,2,0,3v2h0c0,2,0,3,0,4v2h-1v-5a17,17,0,0,1,0-3h0v-3H141a2,2,0,0,1,0,0h0Z" transform="translate(-30 -11)"/><path class="cls-1" d="M177,154c-1-2,0-4,0-5a24,24,0,0,1,0-4V133H153v6s0,0,0,1h-1s0-1,0-1a10,10,0,0,0,0-2v-2h28v19c0,1,2,6-1,7Z" transform="translate(-30 -11)"/><path class="cls-1" d="M222,173c0-3-1-5-1-8V149a56,56,0,0,1,0-6v-3h0a1,1,0,0,0,0-1H200v42a2,2,0,0,1,0,1h-1a4,4,0,0,1,0-2,35,35,0,0,0,0-4c0-3-1-6-1-8s0-10,0-15,0-5,0-8v-8h24v34c0,2,3,11,0,13h-1C221,180,222,176,222,173Z" transform="translate(-30 -11)"/><path class="cls-1" d="M232,192c0-1-1-2-1-4a9,9,0,0,0,1-3v-4a4,4,0,0,1,0-1h0a11,11,0,0,1,0-2v-6c0-1,0-1,0-2h34v5c0,1-1,2-1,3s0,3,0,4,1,2-2,2h-1c0-1,0-2,0-3a19,19,0,0,0,0-4H235a1,1,0,0,0,0,0h0s0,1,0,1v2c0,1-1,3-1,4s-1,5,0,7-1,4,0,6,0,4,0,6,0,2-1,3h-1a8,8,0,0,0,0-2" transform="translate(-30 -11)"/><path class="cls-1" d="M236,159a22,22,0,0,1,0-3c0-1,0-2,0-3s0-2,0-3v-5h19v15a1,1,0,0,1,0,1h-1v-2c-2-4-3-8-3-12v-2H238v2c0,2,0,4,0,6s1,4,1,6a11,11,0,0,0,0,2,1,1,0,0,1,0,1h-1s0-1,0-1v-4" transform="translate(-30 -11)"/><path class="cls-1" d="M280,126V115c0-2,0-3,0-5s0-3,0-5-1-3-1-5,0-3,0-5V84c0-2,0-4,0-5V63c0-2,0-4,0-5s0-3,0-5V50H249c0,2,0,4,0,5v5c0,2,0,4,0,5v5c0,2,0,4-1,5v5c0,2-1,4-1,5s1,4,1,5,0,4,0,5-1,4-1,5,0,4,0,5-1,4-1,5,0,4,0,5,1,4,0,5,0,4,0,5v11c0,3-1,5-1,5s0-2,0-5,0-3-1-5,0-3,0-5,0-3,0-5,0-3,0-5v-5c0-2,0-3,0-5s0-3,0-5-1-3-1-5V91c0-2,0-3,0-5s0-3,0-5,1-3,1-5-1-3-1-5V65c0-2,1-3,1-5V55c0-2,0-4,0-5h0V44h27v2h0c0,2,1,3,1,5v5c0,2-1,4,0,5s1,3,1,5-1,4-1,5,1,3,1,5,0,4,0,5V94c0,2,0,4,0,5s1,4,1,5v5c0,2,0,4,0,5s0,4,0,5,0,4,0,5,0,5,0,5S281,129,280,126Z" transform="translate(-30 -11)"/><path class="cls-1" d="M266,149h0s0-1,0-2v-9c0-1-1-3,0-4a4,4,0,0,0,0-2c0-1,0-2,1-2h1v3c0,3,1,6,1,9v5h-2" transform="translate(-30 -11)"/><path class="cls-1" d="M319,179c-1-4-1-9-1-13s-1-7-1-10V134c0-2,0-4,0-5v-3H287s0,1,0,2v56a4,4,0,0,1,0,1h-1a7,7,0,0,1,0-3c0-2,0-4,0-5s-1-7-1-11,0-13,0-19,0-7,0-11v-8h32l2,2v39c0,2,2,13,1,17S320,180,319,179Z" transform="translate(-30 -11)"/><path class="cls-1" d="M302,121c-1-1,0-3,0-4s0-3,0-5a81,81,0,0,0,0-11c0-4,0-8,0-12s-1-8-1-11h0V71h1v2h3l3-4h2v5h2l2-3h2v2h3c0,6,1,13,1,19s-1,21-1,31,1,12,1,17a50,50,0,0,0,1,8c0,2,0,4,0,7h-1c0-1,0-2,0-3s0-4,0-6V142c-1-10,0-21-1-31s0-20-1-30h0V76h-2v2l-2,3h-2l-2-5h-1l-4,6h-2V74h-1v2h-1v5c0,2,0,4,1,6s0,7,0,11,0,13,0,20v2h-1" transform="translate(-30 -11)"/><path class="cls-1" d="M324,162h13l-8-2h-5l-6-2h5" transform="translate(-30 -11)"/><path class="cls-1" d="M341,180c0-2,0-5,0-7s0-5,0-7,0-4,0-6,0-5,0-7,0-4,0-6,0-2,0-3a8,8,0,0,1,1-3h26a17,17,0,0,0,0,2c0,4,2,9,2,13l2,14,2,14a5,5,0,0,1,0,2h-1v-5c-2-9-3-18-4-27s0-6,0-8v-4H343a6,6,0,0,0-1,3c0,1,0,2,0,3s0,1,0,2v9c0,4-1,8-1,12s1,9,1,13a50,50,0,0,0,0,5,4,4,0,0,1,0,1h-2a8,8,0,0,1,0-2c0-3,0-5,0-8" transform="translate(-30 -11)"/><path class="cls-1" d="M358,137c-1-1,0-2,0-3a28,28,0,0,1,0-3,35,35,0,0,0,0-7c0-3,0-5,0-8s-1-5-1-7h0v-2h2v-2l2-4V95h6l2,4,3,3h2v15c0,7,0,13,0,20s1,8,2,11a21,21,0,0,0,1,5c0,1,0,3,0,4h-1c0-1,0-1,0-2V148c-1-7-1-13-1-20s0-7,0-10,0-3,0-5v-7h-2l-3-5V97h-3l-5,6h-2a36,36,0,0,1,0,5,38,38,0,0,0,1,4c0,2,0,5,0,7s0,8,0,12v2h-1" transform="translate(-30 -11)"/><path class="cls-1" d="M370,162h20a3,3,0,0,1,0,0H370a2,2,0,0,1,0,0Z" transform="translate(-30 -11)"/><path class="cls-1" d="M390,181c-1-15-1-30-2-45a9,9,0,0,0-1-4c-1-1,0-3,0-4v-3h0s0-1,0-1v-2h23a4,4,0,0,1,4,3h0a4,4,0,0,0,0,3h1a8,8,0,0,1,0,2v2c0,2,0,5,0,7a43,43,0,0,1,0,6,45,45,0,0,0,0,7,25,25,0,0,0,1,6c0,1,0,3,0,5a17,17,0,0,1,0,5c0,2,1,3,1,4s0,3,0,5,1,4-1,5-2-1-2-2v-5c0-3-1-7-1-10s1-8,0-11-1-8-1-12a27,27,0,0,0-1-6c-1-2,0-4,0-6v-5H390s0,0,0,1,1,9,1,14,0,7,0,11a38,38,0,0,0,1,8,23,23,0,0,1,1,5c0,2-1,4-1,6s0,7,1,11,1,5,0,7-2,0-2-1v-3" transform="translate(-30 -11)"/><path class="cls-1" d="M436,156c0-2,0-4,0-6s-1-4,0-6,0-4,0-6,0-4,0-6v-8a4,4,0,0,1,0-2h22l2,2h0v2c0,4,1,8,1,12v25a4,4,0,0,1,0,2h-1v-4c-2-8-2-16-2-24s0-5,0-7v-3H437c0,4,0,8,0,12s0,7,0,11,1,8,1,12a39,39,0,0,0,0,5,3,3,0,0,1,0,1h-2a6,6,0,0,1,0-2v-7" transform="translate(-30 -11)"/><path class="cls-1" d="M465,170V148c0-4,0-8,0-13s0-6,0-9v-8a11,11,0,0,1,0-2v-2h20v9a55,55,0,0,1,0,8c0,3,0,6,1,9s0,5,0,7,0,5,0,7,0,6,1,8,1,6,1,9v3c0,1-1,1-1,0a8,8,0,0,0,0-2v-3c0-4,0-9-1-13s-1-8-1-12,0-4,0-6v-4c0-4-1-9-1-13v-2H466a20,20,0,0,1,0,3c0,2,0,4,0,7s0,4,0,7,0,8,0,12a61,61,0,0,0,0,10,32,32,0,0,1,0,7,35,35,0,0,0,0,4v2h0" transform="translate(-30 -11)"/><path class="cls-1" d="M499,167c0-1,0-3,0-4a17,17,0,0,1-1-4v-7c0-2,1-4,0-6s-1-5-1-7v-6H485a1,1,0,0,1,0-1h14v29c0,1,2,4,0,5Z" transform="translate(-30 -11)"/><path class="cls-1" d="M515,169v-8a38,38,0,0,1,0-4h0v-2a15,15,0,0,1,0-2v-2c0-2,0-3,0-5v-8c0-1,0-2,1-2h2v5c0,2,0,3,0,5v2a15,15,0,0,0,0,2v2h0v2a18,18,0,0,0,0,2v8h-1Z" transform="translate(-30 -11)"/><path class="cls-1" d="M532,159c0-4-2-8-1-13a101,101,0,0,0,0-11c0-4-1-9-1-13v-2a2,2,0,0,1,2-2h18s0-1,0-2V96c0-4,0-10,0-14a103,103,0,0,0,0-16V63h30a2,2,0,0,1,2,2v4c0,5,0,11,0,15s-1,10-1,15,0,5,0,7,0,8,0,12,1,7,1,10,0,6,0,9-1,7-1,11,0,10,0,16,1,7-2,8-2-1-2-2a59,59,0,0,1,0-6c0-4,0-8,0-11s0-17,0-25,1-35,1-53c0-2,0-3,0-5V62H551s0,1,0,2V73c1,6,0,11,1,17s0,4,1,6-1,10,0,14v7a2,2,0,0,1-2,2H533v3c0,2,0,3,0,5s0,7,0,10,1,15,1,22,1,8,0,11-1,1-1,0v-2c0-2-1-3-1-5s0-4,0-6" transform="translate(-30 -11)"/><path class="cls-1" d="M107,85V83h0a2,2,0,0,0,0,0h0c0-1,0-1,0-2h1V70h25v2h0a15,15,0,0,0,0,2h0v6h-2V81h0a15,15,0,0,1,0-2H111v2h0a6,6,0,0,0,0,1h0v2h-2Z" transform="translate(-30 -11)"/><path class="cls-1" d="M157,128h0v-4a14,14,0,0,1,0-2h0v-2h17s0,1,0,1h0c0,2,0,3,0,4h-1v-5h0c0-1,0-1,0-2H160a1,1,0,0,1,0,1h-1v2h-2Z" transform="translate(-30 -11)"/><path class="cls-1" d="M203,135a5,5,0,0,1,0-1s0-1,0-1,0-1,0-1a16,16,0,0,1,0-2h11v6h-3a9,9,0,0,1-3-5h-6c0,1,1,2,1,3s0,1,0,1h-2v-2" transform="translate(-30 -11)"/><path class="cls-1" d="M394,120h0v-6h15v4h-1v-5a18,18,0,0,1,0-2H395v2h0a7,7,0,0,1,0,2h-1Z" transform="translate(-30 -11)"/><path class="cls-1" d="M450,120s0-1,0-1v-5h-5v4h-1s0-1,0-1l-2-2a6,6,0,0,1,0-2h11v3s2,1,1,3Z" transform="translate(-30 -11)"/><path class="cls-1" d="M62,117h0s0,1,0,1h0s0,0,0,1H61v-4h0s-1-1,0-1Z" transform="translate(-30 -11)"/><path class="cls-1" d="M86,115h1a5,5,0,0,0,0,1H86Z" transform="translate(-30 -11)"/><path class="cls-1" d="M64,114h9c1,0,2-1,3,0h6c1-1,3,0,4,0h5a9,9,0,0,1,0,1H66c-1,0-10,0-10-1h8" transform="translate(-30 -11)"/><path class="cls-1" d="M256,12c0,1,0,1,0,2a8,8,0,0,1,0,2c0,2,0,3,0,5s-1,3-1,4,1,3,1,5V42c0,1,0,2,0,3h-1s0,0,0-1h0V41c0-1,1-3,1-4s-1-5-1-8,0-6,0-9V15s-1-3,0-4Z" transform="translate(-30 -11)"/><path class="cls-1" d="M269,45h0V40a15,15,0,0,1,0-3h0a6,6,0,0,1,0-2V32c0-1,0-2,0-3V25c0-1,0-2,0-3h0c0-2,0-3,0-4h1v5a16,16,0,0,1,0,3h0V33a6,6,0,0,0,0,2h0s0,1,0,2h0v2h-2Z" transform="translate(-30 -11)"/><path class="cls-1" d="M30,169h0v-2l2-3,4-3H54l6-6,9-3a16,16,0,0,1,9,2l4,3v2h1a10,10,0,0,1,9,1l3,3h1a3,3,0,0,1,0,0h2l7-2h7l2,2h2l4-3h5a14,14,0,0,1,8,4l3,3h5l6-3h13a19,19,0,0,1,14-3l7,3,3,2h12l2,3v2h2l6,3a22,22,0,0,1,7,10h1a6,6,0,0,1,0,1h2l7-3h9v-2a18,18,0,0,1,5-6l8-3h9a25,25,0,0,1,16-8h17v-2l2-3,3-3h18a15,15,0,0,1,9,3h14l5,2,5,5,2,3h3l4-3h15l3,2h3a17,17,0,0,1,7-6h15v-2l2-3,3-2h5l4,2h5v-2l4-8,6-6,8-3h8l4,2h8l8-2h7a11,11,0,0,1,4,6h0s0,0,0,0h12a11,11,0,0,1,4,6h0s0,0,0,0h1l2-3,6-4h12v-6h3l6-3h16v-2a12,12,0,0,1,5-5h7l6,3,3,2h16l6,3a18,18,0,0,1,6,8,19,19,0,0,1,1,6,15,15,0,0,1,0,2h-1v-2a20,20,0,0,0-2-5,17,17,0,0,0-6-7l-5-2H558l-3-2-7-3h-6v2h-1v2h-6l-2-2h-9l-4,2h-3v2h-1v3H500l-5,3h-9a8,8,0,0,0-3-4H470v-2H444l-3-2h-7l-7,2-5,5-4,7v5h-9l-3-2h-3a4,4,0,0,0-3,3c0,1-1,3-2,4H375v2h-3v-2H355l-3,3h-8v-2l-4-4-4-2H295l-2,2v3h-1v2H272a22,22,0,0,0-14,7H247l-6,2-4,5v2h-1v2h-9l-5,3h-6a11,11,0,0,1,0-3,12,12,0,0,0,0-2h-1a19,19,0,0,0-6-8l-4-2h-5l-2-2H184a15,15,0,0,0-10-7,16,16,0,0,0-12,3l-2,2h-2l-4-4h-6l-5,3h-6v-4h-2l-2-3-6-3h-3l-3,2h-1v2H106l-6,2H94l-2-2a7,7,0,0,0-7,0H81a11,11,0,0,0-5-6l-8-2-8,2-6,6-2,4H53v-2H37l-5,4H30Z" transform="translate(-30 -11)"/><path class="cls-1" d="M84,130s0,0,0,0h0a2,2,0,0,0,0,1s0,1,0,1h0s0,1,0,2,0,1,0,1v2h1v2c0,1-1,2-1,3v2H83c0-1,0-2,0-3s0-2,0-3v-3a7,7,0,0,0,0-3,2,2,0,0,1,0-1h0s0-1,0-1,0-1,0-2h1" transform="translate(-30 -11)"/><path class="cls-1" d="M77,143s0-1,0-1h0V130h1v2c0,1,0,2,0,3s0,3,0,4v2s1,1,0,2Z" transform="translate(-30 -11)"/><path class="cls-1" d="M122,92h0v2h0v4h0v2h0v5h0s0,1,0,1h0v3h0v2h0s0,0,0,0h0s0,0,0,1,0,1,0,2h0v6h0v-6h0c0-1,0-1,0-2s0,0,0-1h0s0,0,0,0h0v-2h0v-3h0s0-1,0-1h0v-3c0-1,0-2,0-2s0-1,0-1h0v-2h0v-2c0-1,0-1,0-2h0V92h0Z" transform="translate(-30 -11)"/><path class="cls-1" d="M261,72l-9,11h-1l2-3,5-6,9-11h2C267,66,263,68,261,72Z" transform="translate(-30 -11)"/><path class="cls-1" d="M250,61h12V75H250Z" transform="translate(-30 -11)"/><path class="cls-1" d="M259,59h0Z" transform="translate(-30 -11)"/><path class="cls-1" d="M259,83H248s0-1,0-1Z" transform="translate(-30 -11)"/><path class="cls-1" d="M268,105h-3l-3-3-2-3-3-2-3-3-3-3h2l2,3,5,4,5,5,3,2h2C270,104,269,105,268,105Z" transform="translate(-30 -11)"/><path class="cls-1" d="M268,86h-3v5l-2,2h-1l-2,2-4,3v2h-1v-2l3-4,3-4V94l2-3h5" transform="translate(-30 -11)"/><path class="cls-1" d="M308,166c-1-1,0-2-1-4v-7c0-1,0-3,0-4s0-3-1-5V131h0s0,0,0,1a7,7,0,0,0,0,1v3c0,2,0,3,0,5s1,5,1,8v14C308,162,310,165,308,166Z" transform="translate(-30 -11)"/><path class="cls-1" d="M301,136c0,1,0,3,0,4v2c0,1,0,1,0,2a4,4,0,0,0,0,2v2a6,6,0,0,1,0,3h0v2h-1a4,4,0,0,1,0-1v-2c0-3,0-6,0-9s0-3,0-5h0c0-1,0-7,0-7h0c0,2,0,4,1,6" transform="translate(-30 -11)"/><path class="cls-1" d="M318,83a12,12,0,0,1,0,2c0,1,0,1,0,2a3,3,0,0,0,0,2c0,1,0,1,0,2v3c0,1,0,2,0,3s0,1,0,2v2c0,1,0,2,0,3v7h-1v-2a22,22,0,0,1-1-7V96a3,3,0,0,1,0-1h0V89c0-1,0-2,0-3s0-2,0-3a6,6,0,0,0,0-1h1v2" transform="translate(-30 -11)"/><path class="cls-1" d="M560,74V86c0,2,0,5,0,7s0,4,0,5a65,65,0,0,0,0,9,40,40,0,0,1,0,5v2c0,1,0,1,0,2v4a17,17,0,0,1,0,4c0,2,0,3,0,5s0,3,0,4,0,3,0,4,0,3,0,5a36,36,0,0,1,0,5h-1a2,2,0,0,0,0-1v-2c0-2,0-5,0-7s-1-5-1-7a22,22,0,0,0,0-3v-2c0-2,0-5,0-7v-5a29,29,0,0,0,0-4,41,41,0,0,1,0-6,15,15,0,0,1,0-3,34,34,0,0,0,0-4,31,31,0,0,0,1-4,42,42,0,0,1,0-7,19,19,0,0,0,0-6,10,10,0,0,1,0-4V76h0" transform="translate(-30 -11)"/><path class="cls-1" d="M398,166a16,16,0,0,0,0-2v-8c0-2,0-3,0-5s-1-4-1-5V129a1,1,0,0,1,0,0h0s0,0,0,1a9,9,0,0,0,0,1v3c0,2,0,3,0,5s1,6,1,9v16a13,13,0,0,1,0,3C400,168,398,167,398,166Z" transform="translate(-30 -11)"/><path class="cls-1" d="M115,101c0,2,0,3,0,5v3h0s0,1,0,2v2c0,1,0,2,0,3s0,3,0,5h0c0,1,0,1,0,2a17,17,0,0,1,0,2,10,10,0,0,1,0,3h-1a2,2,0,0,0,0-1v-5s0-1,0-1a4,4,0,0,1,0-2c0-2,0-4,0-7a34,34,0,0,1,0-4h0a5,5,0,0,1,0-1,4,4,0,0,0,0-1h0a6,6,0,0,1,0-2V92h1c1,0,0,2,0,2s0,2,0,2,0,3,0,5" transform="translate(-30 -11)"/><path class="cls-1" d="M123,98h0S124,98,123,98Z" transform="translate(-30 -11)"/><path class="cls-1" d="M106,104h19s0,0,0,1H106" transform="translate(-30 -11)"/></g></svg>